<svg xmlns="http://www.w3.org/2000/svg" width="16" height="16" viewBox="0 0 16 16"><path style="line-height:normal;text-indent:0;text-align:start;text-decoration-line:none;text-decoration-style:solid;text-decoration-color:#000;text-transform:none;block-progression:tb;white-space:normal;isolation:auto;mix-blend-mode:normal;solid-color:#000;solid-opacity:1" d="M 7 0 C 3.13993 0 0 3.14 0 7 C 0 10.8601 3.13993 14 7 14 C 8.7503322 14 10.347588 13.348813 11.576172 12.283203 L 15.142578 15.849609 A 0.50004997 0.50004997 0 1 0 15.849609 15.142578 L 12.283203 11.576172 C 13.348817 10.34759 14 8.7503458 14 7 C 14 3.14 10.86007 0 7 0 z M 7 1 C 10.31963 1 13 3.6804 13 7 C 13 10.3197 10.31963 13 7 13 C 3.68037 13 1 10.3197 1 7 C 1 3.6804 3.68037 1 7 1 z M 6.9921875 4 A 0.50004994 0.50004994 0 0 0 6.5 4.5078125 L 6.5 6.5 L 4.5078125 6.5 A 0.50004994 0.50004994 0 1 0 4.5078125 7.5 L 6.5 7.5 L 6.5 9.4941406 A 0.50004994 0.50004994 0 1 0 7.5 9.4941406 L 7.5 7.5 L 9.4941406 7.5 A 0.50004994 0.50004994 0 1 0 9.4941406 6.5 L 7.5 6.5 L 7.5 4.5078125 A 0.50004994 0.50004994 0 0 0 6.9921875 4 z " color="#000" enable-background="accumulate" font-family="sans-serif" font-weight="400" overflow="visible"/></svg>